<svg width="69" height="85" viewBox="0 0 69 85" fill="none" xmlns="http://www.w3.org/2000/svg">
<path d="M38.8833 51.3106C39.1539 51.4846 39.4246 51.6538 39.6953 51.8181L39.5068 52.1323L38.6851 51.6151L38.8833 51.3106Z" fill="#263238"/>
<path d="M50.6881 2.87753H51.0361V3.24006C50.3908 3.22568 49.7451 3.24988 49.1027 3.31256L49.064 2.95004C49.5909 2.91137 50.1419 2.87753 50.6881 2.87753ZM47.1016 3.2739L47.1789 3.62674C46.5502 3.76912 45.933 3.95816 45.3324 4.19228L45.2019 3.85392C45.8201 3.61691 46.4551 3.42626 47.1016 3.28356V3.2739ZM43.4135 4.72398L43.5923 5.03817C43.0368 5.36255 42.5082 5.73109 42.0117 6.14023L41.7797 5.86471C42.2913 5.43785 42.8378 5.05465 43.4135 4.71915V4.72398ZM40.3538 7.23746L40.6197 7.48398C40.1859 7.96072 39.7869 8.46795 39.4257 9.00175L39.1261 8.79873C39.4966 8.24596 39.907 7.72093 40.3538 7.2278V7.23746ZM38.14 10.5195L38.4687 10.6742C38.1932 11.2563 37.9684 11.8612 37.7968 12.482L37.4488 12.3853C37.6243 11.7428 37.8556 11.1169 38.14 10.5147V10.5195ZM37.0959 14.3477L37.4585 14.3767C37.4585 14.6377 37.4246 14.9036 37.4246 15.1598C37.426 15.5184 37.447 15.8766 37.4875 16.2329C37.8636 16.2581 38.238 16.3049 38.6089 16.373L38.546 16.7307C37.9558 16.6242 37.3574 16.5692 36.7576 16.5664H36.6319V16.2039H36.7624H37.125C37.0862 15.8539 37.0668 15.5022 37.0669 15.1501C37.0621 14.8891 37.0766 14.6136 37.0959 14.3429V14.3477ZM34.6453 16.4455L34.7275 16.7984C34.1057 16.9456 33.5038 17.1663 32.9342 17.4558L32.7698 17.1319C33.3655 16.8282 33.995 16.5961 34.6453 16.4407V16.4455ZM40.5327 16.8951C41.1577 17.1204 41.7638 17.3952 42.3453 17.7168L42.1664 18.031C41.6037 17.7201 41.017 17.4551 40.4118 17.2382L40.5327 16.8951ZM37.9322 18.1711C38.1442 18.7755 38.4231 19.3543 38.7635 19.8967L38.459 20.0901C38.1009 19.5261 37.809 18.9228 37.589 18.292L37.9322 18.1711ZM31.1071 18.2485L31.3391 18.524C30.8487 18.9382 30.4003 19.3996 30.0002 19.9016L29.7198 19.6744C30.1327 19.1489 30.5975 18.6663 31.1071 18.234V18.2485ZM43.9839 18.8285L44.0854 18.9252C44.5638 19.3455 44.9449 19.8651 45.2019 20.4478L44.8636 20.5831C44.6279 20.0497 44.2781 19.5746 43.8389 19.191L43.7422 19.104L43.9839 18.8285ZM28.5984 21.2985L28.9078 21.487C28.5694 22.0477 28.2552 22.6229 27.9797 23.1884L27.651 23.0289C27.9314 22.4537 28.2504 21.8689 28.5984 21.2985ZM39.9671 21.371C40.4088 21.7987 40.8949 22.1778 41.4172 22.5021L41.4897 22.5504L41.3012 22.8598L41.2239 22.8114C40.685 22.4713 40.1843 22.0743 39.7303 21.6272L39.9671 21.371ZM44.7669 22.3039L45.0666 22.5069C44.8597 22.7977 44.5854 23.034 44.2672 23.1956C43.949 23.3572 43.5964 23.4394 43.2395 23.435V23.0724C43.5367 23.0742 43.8301 23.0054 44.0956 22.8718C44.3611 22.7382 44.5912 22.5436 44.7669 22.3039ZM26.8825 24.8512L27.2208 24.9769C26.997 25.5835 26.805 26.2015 26.6456 26.8282L26.2976 26.7412C26.4535 26.1003 26.6472 25.4692 26.8777 24.8512H26.8825ZM25.9158 28.6843L26.2783 28.7326C26.192 29.3738 26.142 30.0193 26.1284 30.6661H25.7659C25.7791 30.0032 25.8291 29.3416 25.9158 28.6843ZM26.1961 32.5995C26.2542 33.2484 26.3462 33.8937 26.4716 34.533L26.1139 34.6055C25.9877 33.958 25.8942 33.3047 25.8336 32.6478L26.1961 32.5995ZM26.9453 36.3987C27.129 37.0078 27.3465 37.6217 27.5979 38.2307L27.2595 38.366C27.0082 37.7522 26.7761 37.1238 26.5973 36.5051L26.9453 36.3987ZM28.3954 39.9998C28.6854 40.5653 29.0093 41.1357 29.3621 41.6964L29.0528 41.8849C28.7048 41.3194 28.3761 40.7393 28.0861 40.1641L28.3954 39.9998ZM30.4304 43.3157C30.8026 43.8377 31.2038 44.3549 31.6194 44.8576L31.3391 45.0896C30.9186 44.5821 30.5125 44.0552 30.1355 43.5283L30.4304 43.3157ZM32.9052 46.3222C33.345 46.8055 33.8091 47.2551 34.2828 47.6998L34.0363 47.9656C33.5529 47.5113 33.0695 47.0424 32.6442 46.5687L32.9052 46.3222ZM35.7425 48.9952C36.2259 49.406 36.7528 49.8121 37.27 50.1987L37.0573 50.4888C36.5304 50.1021 36.0084 49.6912 35.5105 49.2707L35.7425 48.9952Z" fill="white"/>
<path d="M53.0616 3.05149C53.3868 3.09189 53.7095 3.14999 54.0283 3.22551L53.9413 3.57837C53.9413 3.57837 53.5933 3.49136 53.0133 3.40919L53.0616 3.05149Z" fill="#263238"/>
<path d="M57.9378 3.7722C58.165 1.83875 54.2159 0.756016 53.9163 3.28884C53.6166 5.82166 57.7107 5.72015 57.9378 3.7722Z" fill="#263238"/>
<path d="M52.7657 0.572277C53.133 -0.1576 54.4333 -0.259106 55.777 0.678618C56.6896 1.37531 57.4607 2.23991 58.0488 3.22593C56.9125 3.34435 55.764 3.24426 54.6653 2.93108C53.075 2.39454 52.379 1.31182 52.7657 0.572277Z" fill="#EBEBEB"/>
<path d="M58.0352 3.22559C57.2714 2.8824 56.5222 2.51021 55.773 2.14286C55.0238 1.7755 54.2843 1.38398 53.5544 0.977952C54.3181 1.32114 55.0673 1.69332 55.8165 2.06068C56.5657 2.42804 57.3053 2.81956 58.0352 3.22559Z" fill="#263238"/>
<path d="M54.5256 0.58662C54.6991 0.787907 54.8605 0.999348 55.0089 1.21982C55.1549 1.43866 55.2873 1.66627 55.4053 1.90137C55.2317 1.70008 55.0703 1.48864 54.9219 1.26816C54.7749 1.04998 54.6425 0.8223 54.5256 0.58662Z" fill="#263238"/>
<path d="M56.1504 2.28316C55.8844 2.3523 55.615 2.40716 55.3432 2.4475C55.0691 2.48625 54.7932 2.51047 54.5166 2.52002C55.0519 2.38672 55.5993 2.30736 56.1504 2.28316Z" fill="#263238"/>
<path d="M56.5709 1.96396C56.7372 2.17087 56.856 2.4118 56.9189 2.66968C56.7527 2.46276 56.6339 2.22184 56.5709 1.96396Z" fill="#263238"/>
<path d="M52.1288 5.63259C52.3173 6.43014 53.5548 6.82649 55.0774 6.22712C56.1281 5.7593 57.0797 5.09483 57.8809 4.2695C56.7944 3.89327 55.6457 3.72918 54.4973 3.78614C52.8684 3.92148 51.9355 4.81087 52.1288 5.63259Z" fill="#EBEBEB"/>
<path d="M57.8809 4.26958C57.0591 4.42425 56.2423 4.61759 55.4302 4.8061C54.6182 4.99461 53.8061 5.19762 53.0134 5.4248C53.8303 5.27013 54.6472 5.07679 55.4592 4.88828C56.2713 4.69977 57.0736 4.49676 57.8809 4.26958Z" fill="#263238"/>
<path d="M53.8525 6.0293C54.0629 5.8797 54.2646 5.71832 54.4567 5.54593C54.6485 5.3654 54.8309 5.17502 55.0029 4.97557C54.7904 5.12232 54.5885 5.28384 54.3987 5.45893C54.2057 5.63826 54.0233 5.8287 53.8525 6.0293Z" fill="#263238"/>
<path d="M55.8359 4.75293C55.3462 4.49807 54.831 4.29555 54.2988 4.14873C54.7876 4.40577 55.303 4.60838 55.8359 4.75293Z" fill="#263238"/>
<path d="M56.1506 5.15918C56.2559 5.08038 56.3516 4.98953 56.4358 4.8885C56.5193 4.78491 56.5922 4.67317 56.6533 4.55498C56.5479 4.63545 56.4522 4.72792 56.3681 4.8305C56.2804 4.92915 56.2071 5.03982 56.1506 5.15918Z" fill="#263238"/>
<path d="M57.9383 3.77165C57.7998 3.75554 57.6692 3.69877 57.563 3.60852C57.4567 3.51827 57.3796 3.39858 57.3413 3.26454C57.303 3.13051 57.3053 2.98814 57.3478 2.85539C57.3903 2.72264 57.4712 2.60545 57.5803 2.51861C57.6893 2.43178 57.8216 2.37919 57.9605 2.36747C58.0994 2.35575 58.2387 2.38543 58.3608 2.45276C58.4828 2.5201 58.5822 2.62207 58.6464 2.74582C58.7105 2.86957 58.7366 3.00956 58.7213 3.14811C58.6995 3.33433 58.6049 3.50438 58.4582 3.62118C58.3116 3.73798 58.1247 3.79206 57.9383 3.77165Z" fill="#808B91"/>
<path d="M57.7732 5.17856C57.6809 5.16777 57.5915 5.1389 57.5103 5.09358C57.4291 5.04827 57.3577 4.9874 57.3 4.91446C57.2423 4.84152 57.1996 4.75794 57.1742 4.66849C57.1488 4.57903 57.1413 4.48546 57.1521 4.3931C57.1629 4.30074 57.1918 4.2114 57.2371 4.13021C57.2824 4.04901 57.3433 3.97753 57.4162 3.91986C57.4891 3.86218 57.5727 3.81943 57.6622 3.79406C57.7516 3.76868 57.8452 3.76119 57.9376 3.77198C58.1241 3.79377 58.2943 3.88876 58.4108 4.03606C58.5273 4.18337 58.5805 4.37092 58.5587 4.55744C58.5369 4.74397 58.4419 4.91419 58.2946 5.03067C58.1473 5.14715 57.9598 5.20036 57.7732 5.17856Z" fill="#808B91"/>
<path d="M55.7299 54.0801C54.797 54.1961 46.9037 54.5634 43.2833 56.5307C41.3498 57.5796 36.4147 61.0502 36.9077 62.2972C37.3573 63.4331 38.9427 62.8144 38.9427 62.8144C38.9427 62.8144 36.7627 64.395 37.4007 65.9708C38.0388 67.5466 40.6731 66.3623 40.6731 66.3623C40.6731 66.3623 38.5512 68.1508 39.3004 69.6734C40.0496 71.196 42.4954 69.567 42.4954 69.567C42.4954 69.567 40.4798 71.1089 41.6253 72.1047C43.0078 73.3034 46.4058 70.0359 48.7018 69.2722C49.2238 69.0982 59.5098 66.4977 59.5098 66.4977L55.7299 54.0801Z" fill="#D3766A"/>
<path d="M42.5813 69.6103C45.0851 67.2177 46.5981 66.6038 49.9429 65.9271C50.0058 65.9271 50.001 65.8111 49.9429 65.8208C46.6077 66.1833 44.6018 66.6812 42.4702 69.4943C42.3542 69.6345 42.4653 69.7263 42.5813 69.6103Z" fill="#263238"/>
<path d="M40.7549 66.42C43.5729 64.1579 45.2066 63.4812 48.6579 62.5145C48.7062 62.5145 48.6869 62.413 48.6337 62.4226C45.1728 63.0897 43.1814 63.631 40.663 66.2605C40.547 66.3765 40.6244 66.5216 40.7549 66.42Z" fill="#263238"/>
<path d="M39.1115 62.7757C42.0117 60.7843 43.7567 59.9577 47.2272 59.4502C47.2439 59.4502 47.2598 59.4436 47.2716 59.4318C47.2834 59.42 47.29 59.404 47.29 59.3874C47.29 59.3707 47.2834 59.3547 47.2716 59.3429C47.2598 59.3311 47.2439 59.3245 47.2272 59.3245C43.6358 59.4985 41.4268 60.5088 39.0729 62.6791C38.8989 62.8144 38.9327 62.8966 39.1115 62.7757Z" fill="#263238"/>
<path d="M62.207 66.053C62.207 66.053 59.331 69.306 57.7553 70.4564C56.1795 71.6068 48.7164 73.7336 48.1653 72.1482C47.4548 70.0987 51.5199 68.0251 53.6418 67.271C53.6418 67.271 51.9936 62.5341 54.6086 60.4169C57.2236 58.2998 62.207 66.053 62.207 66.053Z" fill="#D3766A"/>
<path d="M48.1498 71.5146C48.8507 69.18 51.7025 68.368 53.7085 67.4834C53.7381 67.4706 53.7644 67.451 53.7852 67.4263C53.806 67.4015 53.8207 67.3723 53.8282 67.3408C53.8358 67.3094 53.8358 67.2767 53.8285 67.2452C53.8211 67.2137 53.8065 67.1844 53.7858 67.1596C53.2251 65.1294 53.0317 62.1036 54.4528 60.3925C54.4915 60.3441 54.4287 60.2765 54.3803 60.32C52.6064 61.9441 52.558 64.9361 53.3121 67.1209C51.2385 67.9958 48.4156 68.9383 48.1304 71.505C48.1256 71.5146 48.1449 71.5146 48.1498 71.5146Z" fill="#263238"/>
<path d="M58.8908 53.1473C59.3065 54.114 60.3409 58.4063 60.5681 59.4745C60.7952 60.5428 61.6363 64.864 61.8828 65.9612C61.8828 66.0241 61.8151 66.0579 61.8006 65.9999C61.5396 64.9172 60.3747 60.6539 60.1185 59.5905C59.8624 58.5271 58.9005 54.2397 58.8328 53.1618C58.8318 53.158 58.8316 53.154 58.8322 53.1501C58.8328 53.1463 58.8341 53.1425 58.8362 53.1392C58.8402 53.1324 58.8469 53.1275 58.8545 53.1256C58.8622 53.1236 58.8704 53.1248 58.8772 53.1289C58.884 53.133 58.8889 53.1396 58.8908 53.1473Z" fill="#263238"/>
<path d="M16.9599 85.0001L69 69.0601L59.6172 38.4276L7.57703 54.3676L16.9599 85.0001Z" fill="white"/>
<path opacity="0.2" d="M16.9599 85.0001L69 69.0601L59.6172 38.4276L7.57703 54.3676L16.9599 85.0001Z" fill="black"/>
<path opacity="0.2" d="M16.9627 85.0003L34.4512 79.6436L25.0683 49.0111L7.57989 54.3678L16.9627 85.0003Z" fill="black"/>
<path d="M17.7995 83.4399C18.3892 80.7267 18.9627 78.0134 19.5202 75.3001L21.1685 67.1409L22.7636 58.9479C23.2856 56.2218 23.7948 53.4908 24.291 50.7549C23.7013 53.465 23.1277 56.1783 22.5702 58.8948L20.922 67.0539L19.3269 75.2276C18.8049 77.9667 18.2957 80.7041 17.7995 83.4399Z" fill="white"/>
<path d="M9.2106 55.3948C11.144 57.3798 13.0952 59.3568 15.0641 61.3257L20.9611 67.2033L26.8968 73.0375C28.8819 74.971 30.8765 76.9044 32.8809 78.8379C30.9474 76.8497 28.9962 74.8727 27.0273 72.907L21.1303 67.0293L15.1946 61.1951C13.2064 59.2424 11.2117 57.3089 9.2106 55.3948Z" fill="white"/>
<path d="M59.0053 65.1132L58.7188 65.2009L59.9518 69.2264L60.2383 69.1386L59.0053 65.1132Z" fill="#263238"/>
<path d="M59.6869 64.9083L59.4004 64.9961L60.6334 69.0216L60.92 68.9338L59.6869 64.9083Z" fill="#263238"/>
<path d="M60.3725 64.6891L60.0859 64.7769L61.319 68.8023L61.6055 68.7146L60.3725 64.6891Z" fill="#263238"/>
<path d="M61.0512 64.4921L60.7646 64.5798L61.997 68.6055L62.2835 68.5178L61.0512 64.4921Z" fill="#263238"/>
<path d="M61.7377 64.2789L61.4512 64.3667L62.6842 68.3922L62.9707 68.3044L61.7377 64.2789Z" fill="#263238"/>
<path d="M62.4194 64.0743L62.1328 64.1621L63.3658 68.1876L63.6524 68.0998L62.4194 64.0743Z" fill="#263238"/>
<path d="M63.1098 63.8492L62.8232 63.937L64.0563 67.9625L64.3428 67.8747L63.1098 63.8492Z" fill="#263238"/>
<path d="M63.7934 63.6461L63.5068 63.7339L64.7406 67.7592L65.0271 67.6713L63.7934 63.6461Z" fill="#263238"/>
<path d="M64.4828 63.4288L64.1963 63.5166L65.4293 67.5421L65.7158 67.4543L64.4828 63.4288Z" fill="#263238"/>
<path d="M57.0531 69.7796L58.2422 69.7506L55.6659 70.5481L56.6713 69.9004L56.2169 68.4213C55.4 68.5615 54.849 67.8799 54.4333 66.5265L57.0096 65.7145C57.4253 67.0631 57.3528 67.9379 56.5987 68.2811L57.0531 69.7796Z" fill="#263238"/>
<path d="M54.4639 68.7502L53.792 68.958L54.3962 70.9302L52.6754 71.457L52.0712 69.4849L51.3945 69.6928L52.3032 67.1696L54.4639 68.7502Z" fill="#263238"/>
<path opacity="0.1" d="M68.999 69.0593L68.2305 66.5458L32.2586 72.4815L34.4531 79.6401L68.999 69.0593Z" fill="black"/>
<path d="M0.834493 50.8947L18.3274 45.5391L25.0703 49.0096L7.57741 54.3701L0.834493 50.8947Z" fill="white"/>
<path opacity="0.2" d="M0.834493 50.8947L18.3274 45.5391L25.0703 49.0096L7.57741 54.3701L0.834493 50.8947Z" fill="black"/>
<path d="M63.2607 31.7729L45.7678 37.1333L42.1281 43.7844L59.621 38.4288L63.2607 31.7729Z" fill="white"/>
<path opacity="0.1" d="M63.2607 31.7729L45.7678 37.1333L42.1281 43.7844L59.621 38.4288L63.2607 31.7729Z" fill="black"/>
<path d="M50.9445 67.2083C49.8763 67.1116 48.7887 67.0197 47.7301 66.8312C46.6716 66.6427 45.6227 66.4107 44.5834 66.1207C43.2221 65.7708 41.9053 65.2664 40.6585 64.6174C42.9545 65.6083 46.7344 66.3527 47.793 66.5509C48.8515 66.7491 49.9004 66.9859 50.9542 67.1744C50.9832 67.1648 50.9735 67.2083 50.9445 67.2083Z" fill="#263238"/>
<path d="M51.703 63.3945C50.3448 63.2157 48.9817 63.0852 47.6283 62.8435C46.2748 62.6018 45.0229 62.2538 43.6937 61.9203C43.5922 61.8961 43.6405 61.8478 43.742 61.872C45.0858 62.1523 46.3425 62.307 47.6863 62.568C49.03 62.829 50.3641 63.148 51.7127 63.3655C51.732 63.3655 51.7272 63.3994 51.703 63.3945Z" fill="#263238"/>
<path d="M52.9453 60.2427C50.8492 60.0151 48.7823 59.5713 46.7775 58.9183C46.676 58.8893 46.7437 58.8361 46.8501 58.8603C48.8898 59.3436 50.4898 59.7303 52.9501 60.1702C52.9888 60.175 52.9888 60.2475 52.9453 60.2427Z" fill="#263238"/>
</svg>
